<svg width="700px" height="167px" viewBox="0 0 700 167" version="1.1" xmlns="http://www.w3.org/2000/svg" xmlns:xlink="http://www.w3.org/1999/xlink">
    <g id="Page-1" stroke="none" stroke-width="1" fill="none" fill-rule="evenodd">
        <g id="WEBSITE-2.0" transform="translate(-287.000000, -170.000000)">
            <path d="M287,336.26303 C287,280.923194 287,225.602865 287,170.26303 C520.339855,170.26303 753.660145,170.26303 987,170.26303 C987,225.602865 987,280.923194 987,336.26303 C753.660145,336.26303 520.339855,336.26303 287,336.26303 Z M385.426495,305.26726 C385.426495,305.247754 385.426495,305.228247 385.426495,305.208741 C394.875908,305.208741 404.344885,305.208741 413.794298,305.208741 C414.713807,305.208741 415.574623,305.072196 415.985467,304.096872 C416.376747,303.180069 415.946339,302.497342 415.300727,301.834123 C398.553941,285.058565 381.826719,268.2635 365.079933,251.487942 C361.499721,247.898753 357.136948,246.162677 352.069871,246.162677 C336.80995,246.162677 321.550028,246.182184 306.290106,246.20169 C305.859698,246.20169 305.448854,246.20169 305.018446,246.26021 C302.88597,246.494287 301.692566,247.781714 301.849078,249.927425 C302.025154,252.170668 302.259922,254.394405 302.651202,256.598635 C305.33147,271.677131 312.726663,283.966203 324.875908,293.329305 C334.990497,301.13189 346.533259,305.091702 359.328116,305.247754 C368.014533,305.345286 376.720514,305.26726 385.426495,305.26726 Z M425.297932,264.206156 C425.317496,264.206156 425.33706,264.206156 425.356624,264.206156 C425.356624,255.876896 425.33706,247.567143 425.376188,239.237883 C425.395752,235.258565 425.082728,231.318259 424.300168,227.436473 C422.089435,216.551867 417.237563,206.9937 409.666294,198.839998 C404.168809,192.92954 397.712689,188.326015 390.297932,185.107448 C383.959195,182.357037 377.366126,180.718494 370.460034,180.406391 C368.112353,180.289352 366.821129,181.576778 366.782001,183.93706 C366.742873,186.902043 366.684181,189.847519 366.684181,192.812501 C366.664617,205.647754 366.645053,218.483006 366.664617,231.318259 C366.664617,236.467965 368.464505,240.876426 372.122974,244.543641 C388.634992,261.026602 405.14701,277.52907 421.639463,294.031538 C421.913359,294.304628 422.187255,294.597225 422.519843,294.79229 C423.654556,295.514029 424.94578,294.967848 425.219676,293.660915 C425.297932,293.309798 425.278368,292.958682 425.278368,292.588059 C425.297932,283.127425 425.297932,273.66679 425.297932,264.206156 Z M705.610956,296.196755 C705.0436,296.430832 704.515372,296.645404 704.026272,296.879481 C701.893795,297.854804 699.976523,299.122724 698.567915,301.034358 C694.831191,306.145051 695.828955,313.245404 700.759083,317.205216 C704.241476,319.99464 708.349916,321.282066 712.634433,322.042818 C719.638345,323.291232 726.70095,323.408271 733.763555,322.608506 C738.556736,322.062325 743.17384,320.93095 747.321409,318.33659 C754.070989,314.103688 755.616546,306.769258 753.288429,300.293112 C751.664617,295.767613 748.084405,293.309798 743.702068,291.827307 C740.14142,290.617906 736.443823,290.364322 732.707099,290.32531 C727.913918,290.286297 723.120738,290.383829 718.327557,290.208271 C716.253773,290.130245 714.160425,289.60357 712.145333,289.057389 C710.775852,288.66726 709.856344,287.594405 709.719396,286.053394 C709.484628,283.400515 712.693125,281.020727 715.471213,281.781479 C722.357742,283.673606 729.205143,283.693112 735.896031,281.079246 C746.01062,277.138941 750.099497,267.639293 747.751817,257.964087 C747.204025,255.701338 746.01062,253.614146 745.13024,251.468435 C752.427613,249.654334 755.73393,242.261385 755.323086,236.272901 C752.466741,235.6682 749.590833,235.0635 746.812745,234.478306 C746.499721,236.682536 746.343208,238.750221 745.893236,240.778894 C745.306316,243.451279 744.034656,245.733535 741.589156,247.255039 C741.002236,247.606156 740.669648,247.489117 740.121856,247.19652 C738.517608,246.299223 736.913359,245.323899 735.191727,244.699693 C729.459475,242.573488 723.551146,242.39793 717.584125,243.626837 C713.690889,244.426602 710.169368,246.026132 707.176076,248.679011 C702.930688,252.463265 701.013415,257.300868 700.974287,262.879716 C700.935159,268.380539 702.715484,273.198635 706.843488,277.021902 C707.039128,277.19746 707.215204,277.412031 707.410844,277.626602 C698.450531,282.503218 697.726663,289.818142 705.610956,296.196755 Z M513.355506,298.576543 C513.355506,298.147401 513.355506,297.796285 513.355506,297.445169 C513.355506,288.374663 513.37507,279.304158 513.355506,270.233653 C513.355506,267.502748 513.785914,264.869375 514.764114,262.314029 C517.326998,255.662325 522.609279,251.195345 530.14142,251.585474 C535.306316,251.858565 539.473449,254.687002 540.979877,259.505098 C541.586361,261.416731 541.840693,263.523429 541.860257,265.532595 C541.938513,276.20263 541.899385,286.853159 541.899385,297.523194 C541.899385,297.874311 541.899385,298.205921 541.899385,298.557037 C545.420906,298.557037 548.844606,298.557037 552.307434,298.557037 C552.307434,298.283946 552.307434,298.069375 552.307434,297.854804 C552.307434,286.970198 552.346562,276.066085 552.28787,265.181479 C552.268306,263.152807 552.072666,261.085122 551.661822,259.095462 C550.487982,253.438588 547.572946,248.893582 542.505869,245.889587 C539.140861,243.899928 535.482392,243.139176 531.60872,242.924604 C523.430967,242.475956 516.133594,246.689352 512.553382,254.043288 C512.29905,254.569963 512.025154,255.096637 511.692566,255.720844 C510.675238,253.106978 509.364449,250.824722 507.447177,248.952102 C501.460593,243.139176 494.202348,241.871255 486.357183,243.587824 C480.096702,244.953277 475.92957,249.049634 473.229737,254.726015 C473.112353,254.979599 472.975405,255.233183 472.877585,255.408741 C472.408049,251.273371 471.958077,247.157507 471.488541,243.00263 C468.847401,243.139176 466.460593,243.256214 464.093348,243.373253 C464.093348,261.845874 464.093348,280.201455 464.093348,298.518024 C467.556177,298.518024 470.960313,298.518024 474.384013,298.518024 C474.384013,298.088882 474.384013,297.737765 474.384013,297.367143 C474.384013,288.33565 474.403577,279.284652 474.384013,270.253159 C474.384013,267.483241 474.794857,264.810856 475.792622,262.236003 C478.335942,255.642818 483.618222,251.0588 491.209055,251.585474 C495.865288,251.897577 499.504192,253.887237 501.558413,258.237178 C502.673561,260.577954 502.927893,263.094287 502.927893,265.649634 C502.927893,276.222137 502.927893,286.775133 502.927893,297.347636 C502.927893,297.737765 502.927893,298.108388 502.927893,298.53753 C506.410285,298.576543 509.833985,298.576543 513.355506,298.576543 Z M808.204584,273.803335 C822.075461,273.803335 835.848519,273.803335 849.602012,273.803335 C849.680268,273.647284 849.73896,273.569258 849.758524,273.471726 C849.797652,273.315674 849.817216,273.159622 849.856344,273.00357 C850.501956,268.126955 850.188932,263.328365 848.604248,258.66632 C846.530464,252.580304 842.735048,247.918259 836.826719,245.187354 C830.62493,242.300398 824.129681,242.007801 817.556177,243.587824 C809.202348,245.577483 803.254891,250.571138 799.968139,258.490762 C796.681386,266.410386 796.583566,274.525075 799.498603,282.542231 C801.885411,289.096402 806.443823,293.79746 812.88038,296.645404 C816.871437,298.420492 821.058133,299.161737 825.401342,299.278776 C830.72275,299.434828 835.848519,298.557037 840.641699,296.196755 C844.045836,294.519199 846.921744,292.19793 849.230296,289.115909 C847.117384,287.204275 845.0436,285.312149 843.0872,283.556567 C841.580771,284.8635 840.230855,286.306978 838.626607,287.360327 C833.383454,290.851984 827.553382,291.378659 821.566797,289.974193 C813.349916,288.06256 808.889324,281.508388 808.204584,273.803335 Z M910.700391,273.842348 C910.778647,273.510738 910.856903,273.296167 910.896031,273.06209 C911.561207,268.165968 911.248183,263.328365 909.643935,258.646814 C907.570151,252.580304 903.75517,247.918259 897.846842,245.187354 C891.625489,242.319904 885.149804,242.027307 878.5763,243.607331 C870.261599,245.59699 864.35327,250.571138 861.046954,258.432243 C857.818893,266.137295 857.642817,274.056919 860.362214,281.93753 C863.003354,289.623077 868.36389,294.811796 876.072107,297.484181 C882.449972,299.688412 888.964785,299.902983 895.518726,298.420492 C901.485746,297.074546 906.494131,294.090057 910.309111,289.154922 C908.196199,287.243288 906.102851,285.351161 904.146451,283.576073 C902.67915,284.8635 901.40749,286.326485 899.84237,287.301808 C892.799329,291.690762 885.4237,291.944346 878.106764,288.199105 C872.413639,285.292642 870.026831,280.06491 869.244271,273.861855 C883.056456,273.842348 896.849078,273.842348 910.700391,273.842348 Z M642.927893,298.576543 C642.927893,298.283946 642.927893,298.030362 642.927893,297.776778 C642.927893,286.892172 642.967021,275.988059 642.888765,265.103453 C642.869201,262.938236 642.653997,260.753512 642.223589,258.627307 C641.264952,253.965263 639.015092,249.966438 635.160984,247.079481 C629.311347,242.67102 622.659586,241.773723 615.675238,243.39276 C609.160425,244.914264 604.83678,249.166673 601.980436,255.057624 C601.843488,255.350221 601.686976,255.642818 601.452208,256.071961 C600.963108,251.585474 600.513136,247.333065 600.0436,243.00263 C597.402459,243.139176 594.996087,243.256214 592.628843,243.373253 C592.628843,261.845874 592.628843,280.181949 592.628843,298.53753 C596.072107,298.53753 599.476244,298.53753 602.919508,298.53753 C602.919508,298.108388 602.919508,297.757272 602.919508,297.406156 C602.919508,288.39417 602.899944,279.40169 602.939072,270.389704 C602.939072,268.809681 603.056456,267.190644 603.36948,265.649634 C605.071548,257.339881 611.195081,250.66867 620.977082,251.409916 C625.692007,251.761032 629.291783,253.887237 631.248183,258.315204 C632.206819,260.480421 632.480715,262.80169 632.480715,265.161972 C632.480715,275.949046 632.480715,286.755627 632.480715,297.542701 C632.480715,297.893817 632.480715,298.225427 632.480715,298.576543 C636.0218,298.576543 639.4455,298.576543 642.927893,298.576543 Z M933.17943,298.576543 C933.17943,298.108388 933.17943,297.757272 933.17943,297.406156 C933.17943,288.39417 933.159866,279.40169 933.198994,270.389704 C933.198994,268.809681 933.316378,267.190644 933.629402,265.649634 C935.33147,257.339881 941.455003,250.72719 951.256568,251.370903 C956.245388,251.702513 960.275573,254.433418 961.801565,259.134475 C962.427613,261.065615 962.701509,263.211326 962.721073,265.239998 C962.799329,276.007566 962.760201,286.755627 962.760201,297.523194 C962.760201,297.874311 962.760201,298.205921 962.760201,298.557037 C966.301286,298.557037 969.705422,298.557037 973.187814,298.557037 C973.187814,298.26444 973.187814,298.010856 973.187814,297.757272 C973.187814,286.872666 973.226942,275.968553 973.148686,265.083946 C973.129122,262.918729 972.913918,260.734005 972.48351,258.607801 C971.524874,253.945756 969.275014,249.946931 965.420906,247.059975 C959.551705,242.651514 952.919508,241.754217 945.935159,243.39276 C939.459475,244.894757 935.13583,249.12766 932.29905,254.979599 C932.142538,255.311208 931.966462,255.623312 931.731694,256.091467 C931.242594,251.604981 930.773058,247.333065 930.323086,243.00263 C927.681945,243.139176 925.275573,243.256214 922.908329,243.373253 C922.908329,261.845874 922.908329,280.181949 922.908329,298.576543 C926.312465,298.576543 929.697037,298.576543 933.17943,298.576543 Z M660.026831,251.6635 C660.026831,252.170668 660.026831,252.521784 660.026831,252.872901 C660.026831,260.909563 660.026831,268.92672 660.026831,276.963382 C660.026831,280.220962 660.222471,283.459035 661.063723,286.619082 C662.628843,292.432008 666.072107,296.528365 672.019564,298.225427 C677.634433,299.824957 683.288429,299.629892 688.883734,298.088882 C690.879262,297.542701 692.816098,296.801455 694.635551,295.67008 C693.539966,292.900163 692.463946,290.188764 691.387926,287.477366 C687.20123,290.227777 682.936277,290.793465 679.356065,290.442348 C675.61934,290.071726 672.958636,288.257624 671.60872,284.687942 C670.689212,282.249634 670.474008,279.694287 670.474008,277.119434 C670.474008,268.965733 670.474008,260.812031 670.474008,252.638823 C670.474008,252.346226 670.474008,252.073136 670.474008,251.6635 C677.673561,251.6635 684.775293,251.6635 691.916154,251.6635 C691.916154,248.854569 691.916154,246.182184 691.916154,243.39276 C684.755729,243.39276 677.634433,243.39276 670.43488,243.39276 C670.43488,237.677366 670.43488,232.079011 670.43488,226.422137 C666.932923,226.617201 663.528787,226.812266 660.026831,227.007331 C660.026831,232.508153 660.026831,237.911444 660.026831,243.431773 C657.033538,243.431773 654.15763,243.431773 651.301286,243.431773 C651.301286,246.221197 651.301286,248.913089 651.301286,251.683006 C654.177194,251.6635 657.033538,251.6635 660.026831,251.6635 Z M773.732812,298.576543 C773.732812,298.088882 773.732812,297.698753 773.732812,297.308623 C773.732812,287.691937 773.713248,278.075251 773.77194,268.458565 C773.791504,265.33753 774.515372,262.333535 776.11962,259.622137 C778.780324,255.096637 782.595305,252.463265 788.034097,252.833888 C789.423141,252.93142 790.773058,253.458095 792.20123,253.789704 C793.022918,250.493112 793.86417,247.079481 794.724986,243.626837 C791.849078,242.905098 789.051425,242.514969 786.195081,242.768553 C782.106205,243.119669 778.819452,244.99229 776.334824,248.210856 C774.711012,250.317554 773.5763,252.677836 772.774176,255.19417 C772.676356,255.46726 772.480715,255.701338 772.265511,256.071961 C771.776411,251.585474 771.306875,247.333065 770.856903,243.022137 C768.196199,243.158682 765.828955,243.275721 763.442146,243.39276 C763.442146,261.826367 763.442146,280.201455 763.442146,298.59605 C766.865847,298.576543 770.250419,298.576543 773.732812,298.576543 Z M577.290665,243.022137 C573.769145,243.158682 570.345444,243.275721 566.921744,243.39276 C566.921744,261.86538 566.921744,280.201455 566.921744,298.576543 C570.384572,298.576543 573.827837,298.576543 577.290665,298.576543 C577.290665,280.06491 577.290665,261.59229 577.290665,243.022137 Z M572.419229,232.352102 C576.468977,232.352102 579.657909,229.3286 579.677561,225.485827 C579.697037,221.623547 576.429849,218.463408 572.419229,218.463408 C568.4673,218.443993 565.278368,221.545521 565.23924,225.446814 C565.180548,229.289587 568.36948,232.352102 572.419229,232.352102 Z" id="Shape" fill-rule="nonzero"></path>
            <g id="Leaf" transform="translate(301.000000, 179.263030)">
                <path d="M82.8160759,123.789685 C74.1887951,123.789685 65.5615142,123.867037 56.9342334,123.770347 C44.2550387,123.634981 32.8166214,119.690033 22.7934659,111.954842 C10.754047,102.672611 3.42570513,90.4896838 0.769665866,75.5414253 C0.381922908,73.3562336 0.16866428,71.1323659 0.013567097,68.9278362 C-0.141530086,66.8006584 1.04108594,65.5243517 3.15428506,65.2922959 C3.56141517,65.25362 3.98793242,65.234282 4.41444968,65.234282 C19.5364251,65.214944 34.6584004,65.195606 49.7803758,65.195606 C54.8016471,65.195606 59.1249811,66.9166863 62.6728292,70.4748746 C79.2682278,87.1055373 95.8442393,103.755538 112.439638,120.386201 C113.079414,121.024354 113.486544,121.701183 113.118188,122.629406 C112.711058,123.596305 111.858023,123.731671 110.946828,123.731671 C101.582835,123.731671 92.1994555,123.731671 82.835463,123.731671 C82.8160759,123.751009 82.8160759,123.770347 82.8160759,123.789685 Z" id="Path-Copy-13" fill="#26BE8B"></path>
                <path d="M122.327083,83.0832375 C122.327083,92.4621577 122.327083,101.841078 122.327083,111.219998 C122.327083,111.568082 122.346471,111.935504 122.268922,112.283587 C121.978115,113.59857 120.71795,114.120695 119.593496,113.40519 C119.263914,113.192472 118.992494,112.921741 118.721074,112.651009 C102.358321,96.2910778 86.0149553,79.9311468 69.6522025,63.5905537 C66.0074186,59.9550135 64.2431882,55.58463 64.2431882,50.4794033 C64.2431882,37.7550125 64.2431882,25.0306217 64.2625753,12.3062309 C64.2625753,9.36685799 64.3207368,6.44682302 64.3595111,3.50745007 C64.3788982,1.1675545 65.65845,-0.108752179 67.9849077,0.00727570048 C74.828571,0.336021359 81.3620398,1.94107369 87.6240886,4.66772886 C94.9718177,7.87783353 101.369576,12.4222588 106.817365,18.2816667 C114.320191,26.3649423 119.128204,35.8405525 121.318952,46.6311453 C122.094438,50.4794033 122.404632,54.3856753 122.385245,58.3306232 C122.346471,66.5879406 122.365858,74.82592 122.365858,83.0832375 C122.365858,83.0832375 122.346471,83.0832375 122.327083,83.0832375 Z" id="Path-Copy-14" fill="#66FECB"></path>
            </g>
            <path d="M706.232845,296.025451 C698.354517,289.568983 699.077837,282.142063 708.090019,277.071953 C707.894527,276.854096 707.718584,276.63624 707.523092,276.457994 C703.378662,272.595996 701.619233,267.684326 701.658332,262.099283 C701.69743,256.435019 703.613252,251.523349 707.855429,247.681156 C710.846457,244.98766 714.365313,243.36364 718.255604,242.551631 C724.218111,241.303908 730.102421,241.501959 735.849886,243.640912 C737.570216,244.294481 739.17325,245.264932 740.776285,246.175967 C741.323663,246.473044 741.655999,246.591875 742.242475,246.235383 C744.686125,244.710389 745.956824,242.373385 746.5433,239.660083 C746.992931,237.600351 747.149325,235.501008 747.462112,233.26303 C750.21855,233.857183 753.092282,234.471142 755.966015,235.085101 C756.376548,241.165272 753.072733,248.691217 745.780881,250.513288 C746.660595,252.691851 747.853096,254.810999 748.400474,257.108393 C750.746378,266.931732 746.660595,276.576825 736.553657,280.577459 C729.86783,283.231345 723.02561,283.231345 716.14429,281.290443 C713.368304,280.518043 710.181784,282.934268 710.396825,285.627764 C710.533669,287.192368 711.432933,288.28165 712.820926,288.677752 C714.834494,289.252101 716.926259,289.767034 718.998474,289.846254 C723.788028,290.044305 728.577583,289.925475 733.367137,289.965085 C737.081486,289.98489 740.776285,290.262162 744.353789,291.490079 C748.73281,292.995268 752.310314,295.510518 753.932898,300.085501 C756.259253,306.6608 754.714866,314.12733 747.970391,318.405235 C743.825961,321.039316 739.1928,322.188013 734.422794,322.742556 C727.365532,323.554566 720.308271,323.455541 713.309656,322.168208 C709.028381,321.395808 704.903499,320.088671 701.443291,317.256539 C696.516892,313.236099 695.539432,306.027036 699.25378,300.838095 C700.641773,298.897193 702.577144,297.609861 704.708007,296.619605 C705.157639,296.480969 705.665918,296.263113 706.232845,296.025451 Z M726.329425,298.798168 C726.329425,298.897193 726.329425,298.976414 726.329425,299.07544 C723.103806,299.07544 719.878188,298.996219 716.65257,299.095245 C714.365313,299.174465 712.156253,299.689398 710.123136,300.8579 C706.232845,303.056268 706.213296,309.275076 709.849447,311.61208 C711.628425,312.740971 713.544247,313.374735 715.577364,313.731227 C721.227083,314.721483 726.93545,314.701678 732.624268,314.246161 C735.185213,314.048109 737.72661,313.632202 740.111612,312.562725 C742.066532,311.6913 743.728215,310.463383 744.295141,308.28482 C745.428995,304.026719 744.119199,300.719264 739.661981,299.649788 C738.958209,299.491347 738.254438,299.293296 737.550667,299.253686 C733.816769,299.095245 730.082872,298.956609 726.329425,298.798168 Z M725.21512,274.1606 C726.915901,273.883328 728.636231,273.724888 730.297913,273.26937 C735.02882,271.962232 738.176241,268.159649 738.547676,263.485641 C738.958209,258.177869 736.710051,253.919769 732.135538,251.899647 C727.482828,249.839914 722.751921,249.879525 718.138309,252.077893 C710.533669,255.722035 710.592317,266.179137 715.460068,270.595679 C718.236055,273.110929 721.559419,273.962549 725.21512,274.1606 Z" id="Shape" fill="#335E67" fill-rule="nonzero"></path>
            <path d="M514.018772,298.243757 C510.586135,298.243757 507.248849,298.243757 503.854353,298.243757 C503.854353,297.819763 503.854353,297.453587 503.854353,297.068138 C503.854353,286.622468 503.854353,276.196071 503.854353,265.750401 C503.854353,263.225709 503.606441,260.739563 502.519439,258.426868 C500.517068,254.129111 496.97001,252.163321 492.431302,251.854962 C485.032063,251.334606 479.883108,255.863632 477.403981,262.377721 C476.431401,264.921685 476.030927,267.562011 476.030927,270.2987 C476.049997,279.221846 476.030927,288.164264 476.030927,297.08741 C476.030927,297.434314 476.030927,297.781219 476.030927,298.224485 C472.693641,298.224485 469.375426,298.224485 466,298.224485 C466,280.108379 466,261.992272 466,243.741259 C468.307495,243.625624 470.634059,243.490717 473.208537,243.375082 C473.666222,247.499387 474.104836,251.565875 474.562521,255.632363 C474.638802,255.458911 474.772293,255.208369 474.905785,254.957827 C477.537473,249.349543 481.599426,245.302328 487.701891,243.953256 C495.349043,242.276552 502.424088,243.509989 508.25957,249.253181 C510.12845,251.084064 511.406154,253.338941 512.397804,255.940722 C512.702928,255.324003 512.988981,254.803647 513.236893,254.283291 C516.72674,247.017576 523.839926,242.854726 531.811271,243.297992 C535.587171,243.509989 539.153299,244.261615 542.433374,246.227405 C547.372557,249.195363 550.214017,253.685845 551.358229,259.274856 C551.758704,261.240647 551.949406,263.283527 551.968476,265.287862 C552.025686,276.041891 551.987546,286.815192 551.987546,297.569222 C551.987546,297.781219 551.987546,298.012488 551.987546,298.26303 C548.59305,298.26303 545.274834,298.26303 541.842198,298.26303 C541.842198,297.916126 541.842198,297.588494 541.842198,297.24159 C541.842198,286.699558 541.880338,276.176798 541.804058,265.634766 C541.784987,263.649703 541.518004,261.568278 540.945898,259.679578 C539.477493,254.919282 535.415539,252.124776 530.381006,251.854962 C523.019907,251.45024 517.870953,255.882905 515.391826,262.454811 C514.438316,264.96023 514.018772,267.581284 514.018772,270.279427 C514.037842,279.241118 514.018772,288.202809 514.018772,297.1645 C514.018772,297.472859 514.018772,297.819763 514.018772,298.243757 Z" id="Path" fill="#335E67"></path>
            <path d="M806.880467,273.491873 C807.56802,280.973054 812.02729,287.336793 820.277922,289.211823 C826.289096,290.575482 832.143116,290.083049 837.407805,286.673904 C839.018643,285.63222 840.374104,284.230682 841.886719,282.980662 C843.851156,284.685235 845.933458,286.522386 848.055049,288.378477 C845.737014,291.352009 842.849293,293.624773 839.431174,295.253587 C834.618306,297.545291 829.471483,298.397577 824.128217,298.24606 C819.767168,298.132422 815.563275,297.412713 811.555825,295.6892 C805.112475,292.924004 800.535338,288.359537 798.119082,281.995798 C795.172428,274.211582 795.270649,266.332667 798.590546,258.643149 C801.890799,250.953631 807.862685,246.124008 816.250828,244.173219 C822.851333,242.658043 829.373261,242.942138 835.600524,245.726274 C841.533121,248.377832 845.344127,252.90442 847.426429,258.813606 C849.017623,263.340194 849.331933,267.99936 848.683669,272.734285 C848.664024,272.885803 848.64438,273.03732 848.585447,273.188838 C848.565802,273.283536 848.506869,273.359295 848.428292,273.510813 C834.63795,273.491873 820.808319,273.491873 806.880467,273.491873 Z M807.057266,266.275848 C817.567,266.275848 827.958867,266.275848 838.390023,266.275848 C838.350734,265.688717 838.350734,265.158405 838.291801,264.628094 C837.918558,261.10531 836.720252,257.92344 834.00933,255.4234 C829.137529,250.915752 820.336855,250.38544 814.561412,254.230199 C810.200364,257.146913 808.059129,261.332586 807.057266,266.275848 Z" id="Shape" fill="#335E67" fill-rule="nonzero"></path>
            <path d="M908.513453,273.527024 C894.599467,273.527024 880.764092,273.527024 866.830454,273.527024 C867.616555,279.542622 870.014163,284.612372 875.733046,287.431001 C883.08309,291.063061 890.49209,290.81714 897.566998,286.56082 C899.1392,285.614972 900.436266,284.196198 901.890553,282.947678 C903.855805,284.669123 905.958625,286.504069 908.081097,288.357933 C904.248856,293.143928 899.21781,296.019308 893.223791,297.343497 C886.640196,298.781187 880.095906,298.5731 873.689184,296.435482 C865.946091,293.843856 860.580952,288.830858 857.908209,281.358652 C855.176509,273.716194 855.353381,266.035901 858.596047,258.563696 C861.917324,250.940154 867.852385,246.116326 876.204707,244.186794 C882.807954,242.654519 889.332592,242.938274 895.562441,245.719069 C901.497503,248.367446 905.329744,252.888603 907.412912,258.771783 C909.024418,263.311857 909.338859,268.003267 908.670673,272.751428 C908.670673,272.978432 908.592063,273.186518 908.513453,273.527024 Z M898.392404,266.300739 C898.353099,265.657562 898.353099,265.127887 898.294142,264.598211 C897.920744,261.079654 896.702287,257.920519 893.990239,255.423478 C889.823905,251.583332 882.709692,250.542898 877.108723,252.945354 C871.114704,255.518063 868.284741,260.341892 867.046632,266.300739 C877.521426,266.300739 887.91761,266.300739 898.392404,266.300739 Z" id="Shape" fill="#335E67" fill-rule="nonzero"></path>
            <path d="M641.977442,298.26303 C638.515969,298.26303 635.112836,298.26303 631.612471,298.26303 C631.612471,297.917804 631.612471,297.591758 631.612471,297.246533 C631.612471,286.64044 631.612471,276.015168 631.612471,265.409076 C631.612471,263.088393 631.34022,260.80607 630.387343,258.67718 C628.423249,254.323503 624.864544,252.232971 620.177943,251.887746 C610.435259,251.178116 604.367958,257.71822 602.676115,265.888555 C602.364971,267.403711 602.267739,268.995584 602.248293,270.549099 C602.2094,279.409885 602.228846,288.251492 602.228846,297.112278 C602.228846,297.457504 602.228846,297.802729 602.228846,298.224671 C598.806266,298.224671 595.42258,298.224671 592,298.224671 C592,280.196232 592,262.148613 592,243.985919 C594.37247,243.870844 596.74494,243.755769 599.370214,243.621515 C599.83693,247.879295 600.303645,252.060359 600.77036,256.471573 C600.984272,256.04963 601.139843,255.761942 601.295415,255.474255 C604.134601,249.682139 608.432272,245.501075 614.907948,244.005098 C621.85034,242.413226 628.442695,243.276289 634.276638,247.629965 C638.107593,250.487665 640.324492,254.419399 641.296815,258.984047 C641.724638,261.055399 641.957996,263.222648 641.957996,265.351538 C642.016335,276.053527 641.996889,286.774694 641.996889,297.476683 C641.977442,297.726013 641.977442,297.975342 641.977442,298.26303 Z" id="Path" fill="#335E67"></path>
            <path d="M933.232826,298.26303 C929.770007,298.26303 926.404457,298.26303 923,298.26303 C923,280.19641 923,262.14897 923,243.986455 C925.373393,243.871381 927.746786,243.756307 930.373082,243.622054 C930.839979,247.860613 931.306876,252.060815 931.773773,256.491164 C932.007221,256.030868 932.182308,255.724004 932.33794,255.397961 C935.17823,249.644261 939.477573,245.501596 945.897407,244.005634 C952.8425,242.413777 959.43742,243.276832 965.273633,247.611286 C969.106079,250.468958 971.32384,254.400653 972.296542,258.965255 C972.724531,261.036588 972.957979,263.203815 972.957979,265.332684 C973.016341,276.034567 972.996887,286.755629 972.996887,297.457512 C972.996887,297.706839 972.996887,297.956166 972.996887,298.243851 C969.534068,298.243851 966.129611,298.243851 962.627883,298.243851 C962.627883,297.898629 962.627883,297.572586 962.627883,297.227364 C962.627883,286.640555 962.666791,276.072925 962.588975,265.486116 C962.569521,263.472321 962.297164,261.38181 961.674635,259.483088 C960.15722,254.860949 956.169141,252.175889 951.188907,251.849846 C941.442432,251.216939 935.372771,257.699441 933.660815,265.888875 C933.34955,267.404016 933.25228,268.995873 933.232826,270.549372 C933.193918,279.410071 933.213372,288.251591 933.213372,297.11229 C933.232826,297.457512 933.232826,297.802734 933.232826,298.26303 Z" id="Path" fill="#335E67"></path>
            <path d="M656.677652,251.206564 C653.707449,251.206564 650.873138,251.206564 648,251.206564 C648,248.471443 648,245.813367 648,243.058985 C650.834312,243.058985 653.688036,243.058985 656.658239,243.058985 C656.658239,237.608004 656.658239,232.272592 656.658239,226.840872 C660.133183,226.648258 663.511061,226.455644 666.986005,226.26303 C666.986005,231.848841 666.986005,237.376867 666.986005,243.020462 C674.130023,243.020462 681.196388,243.020462 688.30158,243.020462 C688.30158,245.774845 688.30158,248.43292 688.30158,251.187303 C681.215801,251.187303 674.149436,251.187303 667.024831,251.187303 C667.024831,251.591792 667.024831,251.861452 667.024831,252.150373 C667.024831,260.201646 667.024831,268.252918 667.024831,276.323451 C667.024831,278.865958 667.238375,281.389204 668.15079,283.796881 C669.490293,287.32172 672.130474,289.113031 675.838375,289.478998 C679.390971,289.825704 683.623025,289.267123 687.777427,286.551263 C688.845147,289.2286 689.912867,291.905937 691,294.641058 C689.213995,295.777482 687.292099,296.490154 685.292551,297.029474 C679.720993,298.551126 674.130023,298.74374 668.558465,297.164304 C662.656885,295.507822 659.259594,291.443663 657.687133,285.703761 C656.832957,282.583411 656.658239,279.386016 656.658239,276.16936 C656.658239,268.233656 656.658239,260.317214 656.658239,252.38151 C656.677652,252.054066 656.677652,251.707361 656.677652,251.206564 Z" id="Path" fill="#335E67"></path>
            <path d="M773.197624,298.26303 C769.746717,298.26303 766.392745,298.26303 763,298.26303 C763,280.16315 763,262.082465 763,243.944197 C765.384615,243.829033 767.730457,243.71387 770.347717,243.579512 C770.813008,247.821372 771.278299,252.005649 771.74359,256.420254 C771.956848,256.055569 772.150719,255.825242 772.247655,255.556527 C773.042527,253.08051 774.166979,250.73885 775.77611,248.685099 C778.238274,245.5181 781.49531,243.675482 785.547217,243.329991 C788.377736,243.099664 791.150094,243.483543 794,244.174524 C793.146967,247.571851 792.313321,250.930789 791.499062,254.174564 C790.083802,253.848267 788.746091,253.330031 787.369606,253.234061 C781.979987,252.869376 778.1995,255.460557 775.562852,259.91355 C773.992495,262.581507 773.255785,265.537373 773.236398,268.608402 C773.178236,278.071011 773.197624,287.533621 773.197624,296.99623 C773.197624,297.399303 773.197624,297.783182 773.197624,298.26303 Z" id="Path" fill="#335E67"></path>
            <path d="M577,243.26303 C577,261.667173 577,279.936134 577,298.26303 C573.99434,298.26303 571.00566,298.26303 568,298.26303 C568,280.071316 568,261.937538 568,243.629954 C570.971698,243.494771 573.960377,243.378901 577,243.26303 Z" id="Path" fill="#335E67"></path>
            <path d="M571.962192,232.26303 C568.035484,232.26303 564.962408,229.400477 565.000348,225.790379 C565.057256,222.143815 568.130332,219.26303 571.962192,219.26303 C575.850961,219.281263 579.018885,222.234979 579,225.826845 C578.980946,229.436943 575.8889,232.244797 571.962192,232.26303 Z" id="Path" fill="#335E67"></path>
            <path d="M722.900557,298.26303 C726.582622,298.423733 730.283965,298.564349 733.96603,298.74514 C734.660032,298.785316 735.354034,298.966108 736.048036,299.146899 C740.462658,300.21156 741.734995,303.586334 740.616881,307.905242 C740.057824,310.114915 738.419209,311.360368 736.491426,312.244237 C734.139531,313.328986 731.633413,313.750833 729.108018,313.951712 C723.49817,314.413735 717.869044,314.45391 712.297752,313.429425 C710.292858,313.067843 708.384353,312.445116 706.649348,311.280016 C703.063672,308.909639 703.08295,302.602025 706.919238,300.372264 C708.924132,299.207163 711.121804,298.664789 713.358032,298.584437 C716.538874,298.483997 719.719715,298.564349 722.900557,298.564349 C722.900557,298.463909 722.900557,298.36347 722.900557,298.26303 Z" id="Path"></path>
            <path d="M720.380309,273.26303 C716.65919,273.079724 713.276355,272.309838 710.450692,269.963519 C705.495833,265.875791 705.436136,256.197225 713.176859,252.824391 C717.853132,250.789692 722.688597,250.753031 727.424566,252.659415 C732.08094,254.529138 734.369329,258.470221 733.951449,263.382827 C733.573367,267.708853 730.369623,271.246662 725.554057,272.438152 C723.86264,272.859756 722.111525,272.988071 720.380309,273.26303 Z" id="Path"></path>
            <path d="M806,268.242304 C807.003135,262.832737 809.210031,258.252222 813.66395,255.081097 C819.562382,250.873656 828.55047,251.433266 833.526019,256.386854 C836.274608,259.122727 837.518495,262.604747 837.899687,266.459841 C837.959875,267.040178 837.959875,267.620514 838,268.26303 C827.346708,268.242304 816.733542,268.242304 806,268.242304 Z" id="Path"></path>
            <path d="M901,268.26303 C890.293233,268.26303 879.686717,268.26303 869,268.26303 C870.283208,261.751278 873.150376,256.47986 879.265664,253.668437 C884.97995,251.043065 892.238095,252.180037 896.488722,256.376499 C899.255639,259.105233 900.498747,262.557495 900.879699,266.402529 C900.9599,266.981352 900.97995,267.580846 901,268.26303 Z" id="Path"></path>
        </g>
    </g>
</svg>